<?xml version="1.0" encoding="UTF-8" standalone="no"?>
<!-- Created with Inkscape (http://www.inkscape.org/) -->

<svg
   xmlns:dc="http://purl.org/dc/elements/1.1/"
   xmlns:cc="http://creativecommons.org/ns#"
   xmlns:rdf="http://www.w3.org/1999/02/22-rdf-syntax-ns#"
   xmlns:svg="http://www.w3.org/2000/svg"
   xmlns="http://www.w3.org/2000/svg"
   xmlns:sodipodi="http://sodipodi.sourceforge.net/DTD/sodipodi-0.dtd"
   xmlns:inkscape="http://www.inkscape.org/namespaces/inkscape"
   width="16px"
   height="16px"
   viewBox="0 0 16 16"
   version="1.1"
   id="SVGRoot"
   inkscape:export-filename="C:\Users\KIVVI 64\Desktop\icons\mstile-150x150.png"
   inkscape:export-xdpi="900"
   inkscape:export-ydpi="900"
   inkscape:version="0.92.3 (2405546, 2018-03-11)"
   sodipodi:docname="safari-pinned-tab.svg">
  <sodipodi:namedview
     id="base"
     pagecolor="#ffffff"
     bordercolor="#666666"
     borderopacity="1.0"
     inkscape:pageopacity="0.0"
     inkscape:pageshadow="2"
     inkscape:zoom="32"
     inkscape:cx="6.7995951"
     inkscape:cy="8.9779861"
     inkscape:document-units="px"
     inkscape:current-layer="layer1"
     showgrid="false"
     inkscape:window-width="2560"
     inkscape:window-height="1057"
     inkscape:window-x="-8"
     inkscape:window-y="-8"
     inkscape:window-maximized="1"
     inkscape:grid-bbox="true" />
  <defs
     id="defs3774" />
  <metadata
     id="metadata3777">
    <rdf:RDF>
      <cc:Work
         rdf:about="">
        <dc:format>image/svg+xml</dc:format>
        <dc:type
           rdf:resource="http://purl.org/dc/dcmitype/StillImage" />
        <dc:title></dc:title>
      </cc:Work>
    </rdf:RDF>
  </metadata>
  <g
     id="layer1"
     inkscape:groupmode="layer"
     inkscape:label="Layer 1">
    <path
       style="fill:#000000;stroke-width:0.0166123"
       d="M 4.840056,14.745131 C 4.636545,14.727219 4.474763,14.694379 4.333569,14.642319 4.20595,14.595263 4.062176,14.517685 4.014809,14.470318 c -0.02615,-0.02616 -0.06203,-0.184614 -0.103296,-0.456273 -0.0104,-0.06853 -0.0259,-0.165709 -0.03447,-0.215959 -0.103003,-0.606069 -0.101223,-1.512718 0.0042,-2.118068 0.01308,-0.07519 0.01857,-0.251473 0.01549,-0.498784 -0.0038,-0.310474 6.2e-5,-0.396103 0.02077,-0.454775 0.01875,-0.05319 0.02549,-0.141008 0.02549,-0.332471 0,-0.227399 -0.0042,-0.268411 -0.03322,-0.325365 -0.04133,-0.081068 -0.0412,-0.1137136 7.32e-4,-0.2063793 0.01835,-0.040415 0.02725,-0.07779 0.01978,-0.083061 -0.0159,-0.011246 -0.186753,-0.280378 -0.186753,-0.2941806 0,-0.00517 -0.01015,-0.032968 -0.0226,-0.061749 -0.01242,-0.028792 -0.03198,-0.074771 -0.04343,-0.1021824 -0.01147,-0.0274 -0.02476,-0.1320697 -0.02956,-0.2325744 -0.0067,-0.140788 -0.01751,-0.2027531 -0.04703,-0.2699492 -0.02106,-0.047968 -0.04552,-0.087215 -0.05434,-0.087215 -0.04099,0 -0.115314,-0.212603 -0.1597,-0.4568372 C 3.371922,8.1922659 3.349022,8.0876068 3.335972,8.0419241 3.240222,7.7066691 3.214156,7.5703831 3.196192,7.31098 3.188592,7.2013395 3.173412,7.0486977 3.162382,6.9717725 3.150292,6.8872935 3.144912,6.7129811 3.148722,6.5315473 3.155022,6.2318647 3.155222,6.230927 3.209352,6.1195941 3.278722,5.9769783 3.38805,5.8286919 3.514474,5.7057507 3.602984,5.6196787 3.68093,5.5671496 3.851473,5.4786379 4.008793,5.3969909 4.17357,5.2654889 4.317465,5.1067591 4.387515,5.0294781 4.472956,4.9769532 4.528603,4.9769532 c 0.02275,0 0.02945,-0.00784 0.02238,-0.026264 -0.0062,-0.016008 0.01158,-0.05335 0.04528,-0.095519 C 4.675143,4.7565012 4.717798,4.6801652 4.73937,4.5990347 4.75215,4.5509457 4.76721,4.5283737 4.78657,4.5282417 4.80331,4.5281282 4.82827,4.5003657 4.8473,4.4606497 4.86507,4.4235787 4.8931,4.3860247 4.90959,4.3771927 4.97013,4.3448107 4.93794,4.048143 4.86996,4.01175 4.8349,3.992995 4.78254,3.8842078 4.714893,3.6895136 4.699033,3.6438276 4.679543,3.5993496 4.671603,3.5906686 4.663703,3.5819886 4.657133,3.5633056 4.657093,3.5491396 4.657064,3.5349636 4.639143,3.4881636 4.617303,3.445111 4.579543,3.370702 4.545963,3.2720254 4.508234,3.1246951 4.487284,3.0428321 4.485484,2.5839873 4.506034,2.5315865 c 0.0082,-0.02099 0.02253,-0.068064 0.03187,-0.1046111 0.0093,-0.036558 0.0363,-0.1286374 0.05987,-0.2046469 0.02359,-0.076013 0.04289,-0.1470885 0.04289,-0.1579496 0,-0.035459 0.08563,-0.1843533 0.137415,-0.2389556 0.06935,-0.073123 0.154854,-0.1102889 0.248802,-0.1081496 0.06114,0.00147 0.07893,-0.00403 0.07893,-0.024067 0,-0.014213 0.01564,-0.053705 0.03476,-0.087724 0.04072,-0.072453 0.166049,-0.1431323 0.280869,-0.1583965 0.174192,-0.023151 0.301082,-0.048273 0.309053,-0.061167 0.01942,-0.03139 0.217186,-0.0095 0.330519,0.0366 0.01828,0.0074 0.07808,0.026521 0.132897,0.042426 0.05482,0.015898 0.107337,0.03469 0.116703,0.041734 0.0094,0.00703 0.05764,0.018206 0.107282,0.024799 0.04964,0.00659 0.116732,0.02729 0.149096,0.045994 0.05629,0.032528 0.206163,0.1484072 0.24141,0.1866244 0.04217,0.045723 0.122681,0.085845 0.189588,0.094483 0.04636,0.00597 0.08808,0.024396 0.113955,0.050254 l 0.04081,0.040814 -0.0475,-0.00868 -0.0475,-0.00868 0.05814,0.053408 c 0.122656,0.1126662 0.229974,0.1466123 0.316727,0.100186 0.04359,-0.023334 0.0406,-0.00366 -0.0052,0.034726 -0.02055,0.017143 -0.0598,0.031942 -0.08722,0.032895 -0.08245,0.00293 0.0011,0.029891 0.09967,0.032309 l 0.08307,0.0022 -0.05815,0.022418 c -0.03198,0.012345 -0.09926,0.033371 -0.14951,0.046749 l -0.09137,0.024323 0.09137,0.011759 c 0.05028,0.00648 0.124781,0.00414 0.165672,-0.00513 0.04087,-0.0093 0.07677,-0.014433 0.07977,-0.011429 0.0029,0.00293 -0.02916,0.022235 -0.0715,0.042734 -0.0639,0.030917 -0.0961,0.035899 -0.189522,0.029195 -0.109197,-0.0078 -0.111637,-0.00714 -0.08205,0.022455 0.01678,0.016777 0.0693,0.050785 0.116714,0.075581 0.04742,0.024799 0.07719,0.048089 0.06615,0.051767 -0.02601,0.00868 -0.237297,-0.028059 -0.259367,-0.045097 -0.0093,-0.00718 -0.03407,-0.017253 -0.05498,-0.022382 -0.02989,-0.00733 -0.03634,-0.0033 -0.03008,0.018352 0.0044,0.015239 0.01652,0.087501 0.02696,0.1605944 0.02333,0.1632684 0.06653,0.421807 0.07698,0.4605847 0.0047,0.017253 -0.01249,0.048408 -0.0431,0.078347 -0.0794,0.077614 -0.07209,0.1022594 0.127755,0.4306571 0.03883,0.063811 0.0706,0.1310001 0.0706,0.1493083 0,0.049906 -0.04528,0.085493 -0.108783,0.085493 -0.04198,0 -0.06358,0.010696 -0.08372,0.04143 -0.02498,0.038133 -0.02502,0.04673 -3.67e-4,0.1079738 l 0.02663,0.066544 -0.04975,0.044327 c -0.04484,0.039957 -0.04729,0.047049 -0.0248,0.071918 0.03238,0.035789 0.03165,0.060386 -0.0022,0.073376 -0.02253,0.00864 -0.02564,0.028059 -0.0182,0.113908 0.0049,0.056917 0.02125,0.1274323 0.0363,0.1567005 0.0248,0.04821 0.02495,0.057844 0.0018,0.1025158 -0.03392,0.065581 -0.129238,0.1269926 -0.283488,0.1826316 -0.04813,0.017363 -0.190848,0.044382 -0.33571,0.063551 -0.03845,0.00509 -0.08223,0.022858 -0.09727,0.039488 -0.02564,0.028316 -0.02366,0.036338 0.03106,0.126663 0.05746,0.094823 0.132758,0.2719052 0.150685,0.3543692 0.0071,0.032712 0.04097,0.058273 0.153532,0.1158824 0.127744,0.065372 0.450581,0.269048 0.528547,0.3334565 0.01575,0.013004 0.09081,0.083464 0.166785,0.1565613 0.185045,0.1780197 0.314642,0.3994767 0.510377,0.8721423 0.0095,0.022858 0.02366,0.054287 0.03158,0.069877 0.0079,0.015605 0.01912,0.058112 0.02495,0.09449 0.0058,0.036375 0.02421,0.080797 0.04091,0.098706 0.04244,0.045554 0.08204,0.1464621 0.08204,0.2090719 0,0.04491 0.0084,0.055811 0.05631,0.073138 0.06558,0.023737 0.07603,0.051386 0.07638,0.2022732 2.16e-4,0.091003 0.0068,0.1155674 0.04176,0.1562462 0.02282,0.026558 0.04153,0.052712 0.04155,0.058145 9.1e-5,0.026667 0.09918,0.1215456 0.11879,0.1137651 C 8.45153,7.9053119 8.47759,7.8602979 8.52487,7.751408 8.53477,7.72855 8.55897,7.672501 8.57858,7.6268146 8.6331,7.4998696 8.732676,7.33744 8.761904,7.3277621 c 0.0144,-0.00476 0.04062,-0.021649 0.05832,-0.037536 0.01769,-0.015898 0.0671,-0.057002 0.109791,-0.091376 0.04269,-0.03436 0.106157,-0.090625 0.141034,-0.1250073 0.08729,-0.086061 0.177836,-0.1388282 0.266703,-0.1554294 0.08275,-0.015458 0.137261,-0.064562 0.137261,-0.1236336 0,-0.044979 0.05641,-0.069123 0.09217,-0.039448 0.03161,0.026228 0.03154,0.1602574 -1.28e-4,0.2360764 -0.01333,0.031942 -0.01956,0.062749 -0.01385,0.068478 0.0155,0.015495 0.112106,0.012601 0.130304,-0.00388 0.01824,-0.016521 0.20934,-0.1193038 0.535001,-0.2877409 0.125582,-0.064954 0.276568,-0.1431763 0.335523,-0.1738255 0.05895,-0.03066 0.124523,-0.055731 0.145714,-0.055731 0.05026,0 0.08226,0.064273 0.05622,0.11293 -0.02491,0.046529 -0.208255,0.1578251 -0.529733,0.3215477 -0.197519,0.1005927 -0.214336,0.1264432 -0.155012,0.2382706 0.0333,0.06276 0.03484,0.077354 0.01784,0.1673015 -0.01026,0.054199 -0.02381,0.2086068 -0.03015,0.3431271 -0.0074,0.156836 -0.01883,0.2518937 -0.03191,0.2649673 -0.01121,0.011209 -0.02037,0.035129 -0.02037,0.053188 0,0.042155 -0.08054,0.2771801 -0.105534,0.3079576 -0.01506,0.018535 -0.01381,0.021502 0.0059,0.014066 0.0137,-0.00517 0.110886,-0.037217 0.215959,-0.071211 0.105072,-0.033994 0.22842,-0.075006 0.274103,-0.091131 0.04568,-0.016118 0.240047,-0.0795 0.431921,-0.1408245 0.19187,-0.061324 0.363809,-0.1175529 0.38208,-0.1249487 0.01828,-0.0074 0.07434,-0.025605 0.124593,-0.040492 0.05025,-0.014872 0.106319,-0.033591 0.124594,-0.041628 0.01828,-0.00802 0.111717,-0.038257 0.207654,-0.0672 0.09593,-0.028939 0.189379,-0.059181 0.207651,-0.0672 0.01828,-0.00802 0.07434,-0.027034 0.124593,-0.042221 0.05025,-0.015202 0.166781,-0.05287 0.258949,-0.083702 0.09217,-0.030843 0.174401,-0.056049 0.182738,-0.056031 0.0084,1.47e-5 0.03726,0.035532 0.06427,0.078907 0.02703,0.043382 0.05392,0.082618 0.05978,0.087186 0.0059,0.00458 0.04333,0.060636 0.08326,0.1245933 0.03994,0.063954 0.08202,0.1259963 0.09352,0.1378685 0.0115,0.011868 0.02718,0.032748 0.0348,0.046434 0.01198,0.021356 0.03568,0.017803 0.169675,-0.025642 0.152451,-0.049415 0.156495,-0.049833 0.189962,-0.019561 0.02531,0.022894 0.05085,0.028829 0.0984,0.022784 l 0.06421,-0.00813 -0.01081,0.1390919 c -0.01535,0.1974599 -0.04249,0.482219 -0.06068,0.6365494 -0.01026,0.087065 -0.0099,0.1376706 0.0011,0.1486819 0.0415,0.041499 0.01535,0.070324 -0.09544,0.1052228 -0.132744,0.041807 -0.295844,0.096314 -0.411151,0.1373959 -0.04569,0.016264 -0.131656,0.045902 -0.191042,0.065833 -0.332995,0.1117578 -0.303658,0.0959 -0.347303,0.1877453 -0.02198,0.046269 -0.08503,0.1317584 -0.140089,0.1899762 -0.05506,0.058221 -0.112629,0.1261428 -0.127923,0.1509384 -0.03451,0.055965 -0.08022,0.096113 -0.124817,0.1096478 -0.01875,0.00568 -0.05034,0.043763 -0.07018,0.084603 -0.02638,0.054298 -0.04846,0.076944 -0.08218,0.084274 -0.06564,0.01425 -0.122784,0.0432 -0.170529,0.08634 -0.03847,0.03476 -0.07122,0.04488 -0.133066,0.04109 -0.02942,-0.0018 -0.156433,0.03594 -0.276459,0.08211 -0.07399,0.02846 -0.08899,0.04222 -0.112131,0.102823 -0.01469,0.03848 -0.0267,0.08326 -0.0267,0.09951 0,0.02887 -0.03948,0.16898 -0.06626,0.235139 -0.0074,0.01828 -0.0226,0.05752 -0.03377,0.08722 -0.01956,0.05207 -0.05407,0.07029 -0.07352,0.03883 -0.0107,-0.01729 -0.216109,-0.08246 -0.42451,-0.134685 -0.175705,-0.04402 -0.327695,-0.0816 -0.382085,-0.09447 -0.02286,-0.0054 -0.04527,-0.01432 -0.04984,-0.01982 -0.0092,-0.01103 -0.08891,-0.04958 -0.191039,-0.09237 C 9.380208,10.317915 9.328924,10.30246 9.220925,10.30742 9.139335,10.31112 9.106387,10.30292 9.004966,10.25344 8.855313,10.1804 8.679832,10.112791 8.486585,10.053698 8.404355,10.028528 8.320166,10.001228 8.299499,9.9929888 8.273819,9.9827688 8.233489,9.9867588 8.172257,10.00559 l -0.08966,0.02762 0.008,0.125791 c 0.0044,0.06918 0.01476,0.179203 0.02301,0.24449 0.03322,0.263103 0.05281,1.299796 0.04013,2.123959 -0.007,0.456841 -0.01381,1.007989 -0.01509,1.224779 l -0.0022,0.394161 -0.04703,0.04909 c -0.04013,0.04189 -0.05177,0.04621 -0.07935,0.02945 -0.05043,-0.03066 -0.105454,-0.170865 -0.134825,-0.343577 -0.05068,-0.298009 -0.06014,-0.391067 -0.07179,-0.706024 -0.0064,-0.173599 -0.01396,-0.308156 -0.01674,-0.29902 -0.0029,0.0091 -0.01268,0.09884 -0.02194,0.199347 -0.01956,0.211606 -0.05992,0.527861 -0.08264,0.647879 -0.0499,0.263539 -0.05992,0.301228 -0.111084,0.417818 -0.01264,0.02879 -0.02337,0.05869 -0.02388,0.06645 -0.0026,0.03843 -0.128392,0.196024 -0.165225,0.206749 -0.257066,0.07484 -0.405663,0.114802 -0.481757,0.129543 -0.05025,0.0097 -0.143697,0.02846 -0.207654,0.04159 -0.06395,0.01315 -0.194779,0.03586 -0.290716,0.05049 -0.09593,0.01462 -0.219281,0.03399 -0.274099,0.04308 -0.378879,0.06267 -0.977252,0.09339 -1.287455,0.06609 z m 5.075058,-4.588278 c 0.146191,-0.05571 0.273272,-0.108798 0.282411,-0.11797 0.0111,-0.01114 0.0084,-0.01366 -0.0083,-0.0076 -0.242417,0.08861 -0.511747,0.193056 -0.553976,0.21483 -0.03745,0.0193 -0.03429,0.02245 -0.07666,-0.07638 -0.01908,-0.04451 -0.03837,-0.07724 -0.04287,-0.07273 -0.0045,0.0045 0.0029,0.02985 0.01692,0.05634 0.01381,0.02648 0.02517,0.05601 0.0252,0.0656 1.87e-4,0.02967 0.03939,0.05853 0.06609,0.04861 0.01396,-0.0052 0.144993,-0.05501 0.29118,-0.110721 z M 9.484439,10.007211 c -0.03081,-0.043979 -0.03334,-0.033554 -0.0076,0.03125 0.01022,0.02571 0.02202,0.03761 0.02616,0.02641 0.0042,-0.01117 -0.0042,-0.03714 -0.01857,-0.05769 z m 0.783341,0.0099 c -0.0055,-0.0055 -0.01985,-0.0061 -0.03183,-0.0015 -0.01326,0.0053 -0.0093,0.0092 0.01004,0.01004 0.01751,7.33e-4 0.02733,-0.0033 0.0218,-0.0087 z M 9.434155,9.8957427 c -0.01462,-0.028243 -0.03055,-0.051382 -0.03542,-0.051382 -0.0049,0 -0.0049,0.00641 -6.2e-5,0.014213 0.0048,0.0078 0.0167,0.035019 0.02637,0.060445 0.0097,0.025422 0.02165,0.042151 0.02663,0.037162 0.005,-0.00498 -0.0029,-0.032199 -0.01751,-0.060445 z M 9.361648,9.74109 C 9.349738,9.729185 9.341978,9.728196 9.341978,9.73853 c 0,0.022162 0.01963,0.041822 0.03073,0.030734 0.0047,-0.00473 -2.49e-4,-0.017436 -0.01106,-0.028243 z M 9.319038,9.65064 c -0.0296,-0.054632 -0.03451,-0.044408 -0.0098,0.020513 0.0094,0.024689 0.02121,0.040803 0.02623,0.035789 0.005,-0.00502 -0.0022,-0.030367 -0.01641,-0.056291 z M 9.278588,9.558355 c -0.0119,-0.011905 -0.01967,-0.012894 -0.01967,-0.00256 0,0.022162 0.01963,0.041818 0.03073,0.030733 0.0047,-0.00473 -2.49e-4,-0.017436 -0.01106,-0.028242 z M 9.245358,9.491906 c -0.0119,-0.011905 -0.01967,-0.012894 -0.01967,-0.00256 0,0.022162 0.01964,0.041818 0.03073,0.030733 0.0047,-0.00473 -2.49e-4,-0.017436 -0.01106,-0.028242 z m 0.0045,-0.111538 c 0.0053,-0.0085 0.0018,-0.020147 -0.0073,-0.025898 -0.0093,-0.00575 -0.01689,0.0011 -0.01689,0.015458 0,0.029195 0.01,0.033481 0.02421,0.01044 z m 0.03436,-0.097615 c -0.0051,-0.00513 -0.01853,-1.1e-5 -0.02978,0.011356 -0.01626,0.016411 -0.01436,0.018316 0.0093,0.0093 0.01637,-0.00623 0.0256,-0.015532 0.02048,-0.020623 z M 9.749364,9.199692 c -0.0051,-0.00513 -0.01854,-1.1e-5 -0.02978,0.011356 -0.01626,0.016411 -0.01436,0.018316 0.0093,0.0093 0.01637,-0.00623 0.0256,-0.015532 0.02048,-0.02066 z M 9.89013,9.163244 c 0.0137,-0.00886 0.01744,-0.016118 0.0083,-0.016118 -0.0091,0 -0.02784,0.00725 -0.04153,0.016118 -0.0137,0.00886 -0.01744,0.016118 -0.0083,0.016118 0.0091,0 0.02784,-0.00725 0.04153,-0.016118 z m 0.240761,-0.082871 c 0.0058,-0.00941 -7.32e-4,-0.012198 -0.01564,-0.00652 -0.02879,0.011026 -0.03403,0.022968 -0.01015,0.022968 0.0086,0 0.02018,-0.0074 0.02579,-0.016411 z m 0.09148,-0.033408 c 0.0137,-0.00886 0.01744,-0.016118 0.0083,-0.016118 -0.0092,0 -0.02784,0.00725 -0.04153,0.016118 -0.0137,0.00886 -0.01744,0.016118 -0.0083,0.016118 0.0091,0 0.02784,-0.00725 0.04153,-0.016118 z m 0.09967,-0.033224 c 0.02216,-0.014323 0.02216,-0.016118 0,-0.016118 -0.0137,0 -0.03612,0.00725 -0.04984,0.016118 -0.02216,0.014323 -0.02216,0.016118 0,0.016118 0.0137,0 0.03612,-0.00725 0.04984,-0.016118 z m 0.141205,-0.049837 c 0.013,-0.021026 -0.009,-0.021026 -0.04153,0 -0.02147,0.013883 -0.02103,0.016118 0.0033,0.016374 0.01546,1.355e-4 0.03271,-0.00722 0.03836,-0.016374 z m 0.09137,-0.033224 c 0.0137,-0.00886 0.01744,-0.016118 0.0083,-0.016118 -0.0091,0 -0.02784,0.00725 -0.04153,0.016118 -0.0137,0.00886 -0.01744,0.016118 -0.0083,0.016118 0.0091,0 0.02784,-0.00725 0.04153,-0.016118 z m 0.156987,-0.051588 c 0.02469,-0.023261 -0.01344,-0.017949 -0.07617,0.010586 l -0.0559,0.025422 0.05814,-0.010586 c 0.03198,-0.00582 0.06524,-0.017253 0.07393,-0.025422 z m 0.08389,-0.031466 c 0.013,-0.021026 -0.009,-0.021026 -0.04153,0 -0.02147,0.013883 -0.02103,0.016118 0.0033,0.016338 0.01546,1.355e-4 0.03271,-0.00722 0.03836,-0.016338 z m 0.07025,-0.026667 c -0.0055,-0.00553 -0.01985,-0.00612 -0.03183,-0.00147 -0.01326,0.00531 -0.0093,0.00923 0.01004,0.010037 0.01751,7.326e-4 0.02733,-0.0033 0.0218,-0.00872 z m 0.09924,-0.025276 c 0.02557,-0.010293 0.06142,-0.024689 0.07969,-0.032052 0.01828,-0.00736 0.06176,-0.022125 0.09663,-0.032821 0.03487,-0.010696 0.05976,-0.023078 0.0553,-0.027547 -0.0084,-0.00839 -0.248915,0.070152 -0.293144,0.095691 -0.03659,0.021136 0.0065,0.018828 0.06151,-0.0033 z M 11.30441,8.6738078 c 0.03073,-0.013334 0.04468,-0.024213 0.03099,-0.024176 -0.0307,1.172e-4 -0.131945,0.045214 -0.105735,0.047089 0.01037,7.326e-4 0.04401,-0.00956 0.07476,-0.022931 z m 0.172185,-0.058793 c 0.03656,-0.016924 0.05897,-0.03121 0.04984,-0.031723 -0.02238,-0.00147 -0.137725,0.039338 -0.151971,0.05358 -0.02117,0.021173 0.03531,0.00908 0.102135,-0.021832 z m 0.191042,-0.066449 c 0.02216,-0.014323 0.02216,-0.016118 0,-0.016118 -0.0137,0 -0.03612,0.00725 -0.04984,0.016118 -0.02216,0.014323 -0.02216,0.016118 0,0.016118 0.0137,0 0.03612,-0.00725 0.04984,-0.016118 z m 0.118531,-0.042045 0.05589,-0.025422 -0.05814,0.010586 c -0.03198,0.00582 -0.06524,0.017253 -0.07393,0.025422 -0.02469,0.023261 0.01344,0.017949 0.07617,-0.010586 z m 0.11404,-0.041016 c 0.0137,-0.00886 0.01744,-0.016118 0.0083,-0.016118 -0.0092,0 -0.02784,0.00725 -0.04153,0.016118 -0.0137,0.00886 -0.01744,0.016118 -0.0083,0.016118 0.0091,0 0.02784,-0.00725 0.04153,-0.016118 z m 0.09967,-0.033224 c 0.02216,-0.014323 0.02216,-0.016118 0,-0.016118 -0.0137,0 -0.03612,0.00725 -0.04984,0.016118 -0.02216,0.014323 -0.02216,0.016118 0,0.016118 0.0137,0 0.03612,-0.00725 0.04984,-0.016118 z m 0.14951,-0.049837 c 0.02216,-0.014323 0.02216,-0.016118 0,-0.016118 -0.0137,0 -0.03612,0.00725 -0.04984,0.016118 -0.02216,0.014323 -0.02216,0.016118 0,0.016118 0.0137,0 0.03612,-0.00725 0.04984,-0.016118 z m 0.08306,-0.033224 c 0.0137,-0.00886 0.01744,-0.016118 0.0083,-0.016118 -0.0091,0 -0.02784,0.00725 -0.04153,0.016118 -0.0137,0.00886 -0.01744,0.016118 -0.0083,0.016118 0.0091,0 0.02784,-0.00725 0.04153,-0.016118 z m 0.14951,-0.049837 c 0.0137,-0.00886 0.01744,-0.016118 0.0083,-0.016118 -0.0091,0 -0.02784,0.00725 -0.04153,0.016118 -0.0137,0.00886 -0.01744,0.016118 -0.0083,0.016118 0.0091,0 0.02784,-0.00725 0.04153,-0.016118 z m 0.08306,-0.033224 c 0.0137,-0.00886 0.01744,-0.016118 0.0083,-0.016118 -0.0091,0 -0.02784,0.00725 -0.04153,0.016118 -0.0137,0.00886 -0.01744,0.016118 -0.0083,0.016118 0.0092,0 0.02784,-0.00725 0.04153,-0.016118 z m 0.240762,-0.082874 c 0.0058,-0.00941 -7.33e-4,-0.012198 -0.01564,-0.00652 -0.02879,0.011026 -0.03403,0.022931 -0.01015,0.022931 0.0086,0 0.02018,-0.0074 0.02579,-0.016411 z m -6.406283,-2.3882079 -0.0022,-0.078907 -0.01011,0.064855 -0.01011,0.064855 -0.05814,-0.045664 c -0.05057,-0.039715 -0.04967,-0.037884 0.0069,0.014066 0.03579,0.032858 0.06756,0.05972 0.0706,0.05972 0.0029,0 0.0045,-0.035495 0.0033,-0.078911 z M 6.091498,5.6949604 c -0.03803,-0.03403 -0.09354,-0.080541 -0.123363,-0.1033839 -0.02982,-0.022858 -0.06224,-0.049038 -0.07205,-0.058218 -0.0098,-0.00916 -0.05896,-0.050258 -0.109208,-0.091292 -0.05025,-0.041034 -0.0999,-0.082116 -0.110333,-0.091292 -0.01044,-0.00919 -0.05049,-0.042851 -0.08901,-0.07483 -0.03853,-0.031979 -0.08045,-0.068024 -0.09317,-0.080098 -0.01271,-0.012088 -0.02311,-0.014799 -0.02311,-0.00604 0,0.00875 0.01681,0.027254 0.03738,0.041144 0.02055,0.013883 0.069,0.053994 0.10764,0.089123 0.03864,0.035129 0.09416,0.082559 0.123363,0.1054023 0.0292,0.022858 0.06121,0.049005 0.07111,0.058141 0.0099,0.00916 0.07774,0.065068 0.150737,0.1242856 0.073,0.059222 0.142612,0.1171572 0.154686,0.1287473 0.01209,0.011575 0.02703,0.02088 0.03322,0.020623 0.0062,-2.418e-4 -0.01985,-0.028279 -0.05788,-0.062295 z M 6.551039,5.4171466 c 0,-0.0137 -0.0075,-0.024909 -0.01659,-0.024909 -0.0091,0 -0.01659,0.011209 -0.01659,0.024909 0,0.0137 0.0075,0.024909 0.01659,0.024909 0.0091,0 0.01659,-0.011209 0.01659,-0.024909 z m -0.03323,-0.051024 c 0,-0.00524 -0.01121,-0.020696 -0.02491,-0.034397 -0.02703,-0.027034 -0.03044,-0.023004 -0.01484,0.01762 0.0095,0.024689 0.03975,0.037481 0.03975,0.016777 z M 6.301594,5.2053415 c -1.87e-4,-0.029342 -0.0037,-0.032162 -0.01561,-0.013114 -0.01337,0.021136 -0.01923,0.020916 -0.04543,-0.00147 -0.01656,-0.01425 -0.0413,-0.031759 -0.055,-0.038906 -0.0137,-0.00714 0.0011,0.010074 0.03322,0.038327 0.06996,0.061789 0.08314,0.064229 0.08281,0.015312 z m -0.846973,-0.03447 c 0,-0.00293 -0.02055,-0.023517 -0.04568,-0.045683 l -0.04568,-0.040272 0.04027,0.045683 c 0.03764,0.042697 0.05109,0.053302 0.05109,0.040272 z m 0.681104,-0.052731 c -0.01139,-0.0137 -0.02912,-0.024689 -0.03941,-0.024396 -0.01029,2.894e-4 -0.0042,0.011502 0.01352,0.024909 0.04143,0.03132 0.05216,0.0311 0.0259,-3.663e-4 z M 5.2772,5.0049172 c -0.04385,-0.04143 -0.08208,-0.072965 -0.08497,-0.070079 -0.0029,0.00293 0.03062,0.039144 0.07448,0.08057 0.04385,0.04143 0.08208,0.072965 0.08497,0.070079 0.0029,-0.00293 -0.03062,-0.03914 -0.07448,-0.08057 z m 0.792144,0.081643 c 0,-0.012235 -0.120348,-0.07787 -0.128253,-0.069965 -0.0043,0.00429 0.02095,0.022931 0.05609,0.04147 0.07095,0.03743 0.07217,0.037913 0.07217,0.028499 z m -0.14951,-0.083405 c 0,-0.01033 -0.252304,-0.1283077 -0.259337,-0.1212746 -0.0064,0.00637 0.22582,0.1263663 0.246879,0.1275715 0.0069,3.663e-4 0.01245,-0.00256 0.01245,-0.0063 z M 5.637427,4.870635 c 0,-0.00872 -0.130418,-0.076585 -0.145869,-0.075914 -0.0066,2.894e-4 0.01795,0.018938 0.0545,0.041448 0.06283,0.038693 0.09137,0.049463 0.09137,0.03447 z M 5.462997,4.777592 c -0.0056,-0.00912 -0.01773,-0.016594 -0.02689,-0.016594 -0.0091,0 -0.01198,0.00747 -0.0063,0.016594 0.0056,0.00912 0.01773,0.01663 0.02689,0.01663 0.0091,0 0.01198,-0.00747 0.0063,-0.01663 z M 5.353631,4.723052 c -0.0038,-0.00256 -0.02187,-0.015678 -0.04014,-0.029085 -0.03073,-0.022528 -0.0315,-0.022198 -0.01044,0.00469 0.01253,0.016008 0.03062,0.029085 0.04014,0.029085 0.0095,0 0.01425,-0.0022 0.01044,-0.00469 z M 5.271951,4.670593 c 0,-0.00403 -0.0075,-0.011942 -0.01659,-0.017583 -0.0091,-0.00564 -0.01659,-0.0022 -0.01659,0.00733 0,0.00967 0.0075,0.017583 0.01659,0.017583 0.0091,0 0.01659,-0.0033 0.01659,-0.00733 z"
       id="path3801"
       inkscape:connector-curvature="0" />
  </g>
</svg>
